<?xml version="1.0" standalone="no"?>
<!DOCTYPE svg>
<svg xmlns="http://www.w3.org/2000/svg"
     width="350.000000pt" height="350.000000pt" viewBox="0 0 350.000000 350.000000"
     preserveAspectRatio="xMidYMid meet">
    <metadata>
        Created by potrace 1.11, written by Peter Selinger 2001-2013
    </metadata>
    <g transform="translate(0.000000,350.000000) scale(0.100000,-0.100000)"
       fill="#000000" stroke="none">
        <path d="M1558 3415 c-2 -1 -21 -6 -43 -9 -93 -14 -114 -18 -195 -42 -97 -28
-98 -29 -205 -79 -79 -38 -209 -119 -274 -172 -49 -41 -172 -164 -201 -203
-35 -46 -69 -81 -110 -110 -70 -50 -227 -218 -288 -308 -107 -156 -195 -366
-217 -517 -2 -11 -4 -20 -5 -20 -7 0 -13 -102 -14 -230 -1 -178 8 -267 35
-353 6 -18 12 -41 14 -50 2 -9 4 -17 5 -17 1 0 3 -10 6 -22 4 -23 23 -69 71
-173 30 -65 119 -205 165 -258 64 -74 187 -188 244 -227 33 -22 61 -43 64 -46
9 -12 174 -97 230 -119 30 -12 69 -28 85 -35 26 -12 333 -113 360 -119 54 -11
144 -45 205 -77 126 -65 277 -114 410 -134 14 -2 45 -7 70 -11 156 -25 433 3
555 56 55 23 78 33 90 35 17 4 120 48 125 54 3 4 23 15 45 25 22 11 54 30 72
43 17 13 35 23 39 23 27 0 234 191 309 285 22 28 43 51 48 53 4 2 7 10 7 17 0
8 6 20 14 27 19 20 95 156 102 184 3 13 11 24 17 24 6 0 8 3 5 6 -4 3 2 25 13
48 20 45 48 143 55 189 2 16 6 33 10 38 16 27 25 352 11 434 -4 22 -9 56 -12
75 -9 56 -27 124 -38 138 -5 6 -7 12 -4 12 7 0 -15 67 -37 115 -98 215 -165
313 -313 463 -46 45 -82 86 -82 90 4 29 -71 180 -146 292 -132 198 -336 375
-549 475 -71 34 -199 83 -236 90 -11 2 -116 25 -145 31 -30 6 -361 15 -367 9z
m1302 -3029 c0 -2 -8 -10 -17 -17 -16 -13 -17 -12 -4 4 13 16 21 21 21 13z"/>
    </g>
</svg>
